# xmcd CD database file
#
# Track frame offsets:
#	150
#	17469
#	35943
#	46473
#	69383
#	89135
#	102515
#	116011
#
# Disc length: 1853 seconds
#
# Revision: 0
# Processed by: cddbd v1.5.2PL0 Copyright (c) Steve Scherf et al.
# Submitted via: CDex 1.51
#
DISCID=6f073b08
DTITLE=Grant Reha Timoti - Midnight Romeo
DYEAR=1900
DGENRE=Country
TTITLE0=Grant Reha Timoti - Midnight Romeo (master)
TTITLE1=Grant Reha Timoti - Under TheMan In TheMoon
TTITLE2=Grant Reha Timoti - Houston
TTITLE3=Grant Reha Timoti - Lonely Just Like Me
TTITLE4=Grant Reha Timoti - While He Was On The Cross
TTITLE5=Grant Reha Timoti - Make The World Go Away
TTITLE6=Grant Reha Timoti - What A Way To Go
TTITLE7=Grant Reha Timoti - Walking Piece Of Heaven
EXTD=
EXTT0=
EXTT1=
EXTT2=
EXTT3=
EXTT4=
EXTT5=
EXTT6=
EXTT7=
PLAYORDER=
